<svg xmlns="http://www.w3.org/2000/svg" width="58" height="58" viewBox="0 0 58 58" fill="none"><path fill-rule="evenodd" clip-rule="evenodd" d="M55.8949 20.2638C55.8329 19.7138 55.7456 19.1738 55.633 18.6438C54.9124 15.3937 53.4273 12.3623 51.3009 9.80089C49.1745 7.23952 46.468 5.22201 43.406 3.91576C26.393 -3.16124 3.47097 10.3037 2.04997 28.9637C1.46697 36.6137 6.06695 43.7637 11.6079 49.0637C14.09 51.6218 17.0778 53.6346 20.381 54.9737C26.195 57.0737 32.8809 55.7337 38.1209 52.4537C47.3969 46.6437 57.1999 31.8338 55.8949 20.2638Z" fill="#E4EDB2"/><g clip-path="url(#clip0_1027:6396)"><g clip-path="url(#clip1_1027:6396)"><path d="M54.6644 42.3422C48.3216 48.685 29.9194 56.8035 23.5768 50.4607C17.2341 44.118 25.3525 25.7158 31.6953 19.3731C38.0381 13.0305 43.6397 17.7123 49.9825 24.0551C56.3253 30.3979 61.0072 35.9994 54.6644 42.3422Z" fill="#E43A4F"/><path d="M49.9825 24.0551C49.0581 23.1308 48.1497 22.2422 47.2522 21.4175C52.0873 26.6783 54.715 31.556 49.2966 36.9745C43.8782 42.393 29.6603 49.1051 21.6768 46.9927C22.0371 48.3546 22.6523 49.5364 23.5767 50.4608C29.9195 56.8035 48.3217 48.685 54.6645 42.3422C61.0072 35.9995 56.3252 30.3979 49.9825 24.0551Z" fill="#C73044"/><path d="M35.4833 18.3754C35.4833 27.3454 28.2117 46.0983 19.2416 46.0983C10.2715 46.0983 3 27.3454 3 18.3754C3 9.4054 10.2716 8.75513 19.2417 8.75513C28.2118 8.75513 35.4833 9.4054 35.4833 18.3754Z" fill="#F5A2AD"/><path d="M29.9207 9.88696C30.2008 10.8506 30.3495 11.9609 30.3495 13.2413C30.3495 22.2113 23.0779 40.9643 14.1078 40.9643C12.7792 40.9643 11.4879 40.5528 10.252 39.8227C12.8262 43.5219 15.9173 46.0984 19.2418 46.0984C28.2118 46.0984 35.4835 27.3454 35.4835 18.3754C35.4836 13.4938 33.3296 11.0767 29.9207 9.88696Z" fill="#F18994"/><path d="M13.8643 8.91262C13.2223 10.5346 12.8496 12.2105 12.8496 13.4842C12.8496 15.1422 13.481 17.6789 14.5164 19.9033C15.7378 22.5272 16.5154 25.3357 16.8952 28.205L17.7858 34.9332C18.0109 36.634 20.472 36.634 20.6971 34.9332L21.5877 28.205C21.9675 25.3357 22.745 22.5272 23.9665 19.9033C25.0018 17.6789 25.6332 15.1423 25.6332 13.4842C25.6332 12.2105 25.2606 10.5346 24.6185 8.91262C22.9355 8.78406 21.1262 8.75488 19.2414 8.75488C17.3565 8.75488 15.5474 8.78406 13.8643 8.91262Z" fill="#FFE2DD"/><path d="M24.6183 8.91262C23.9112 8.85859 23.1808 8.82285 22.433 8.79883C22.5407 9.39215 22.5982 9.95172 22.5982 10.4494C22.5982 12.1074 21.9668 14.6441 20.9315 16.8685C19.71 19.4924 18.9325 22.3009 18.5527 25.1702L17.6621 31.8984C17.632 32.1256 17.5611 32.3214 17.4619 32.4879L17.7856 34.9333C18.0107 36.6341 20.4718 36.6341 20.6969 34.9333L21.5875 28.2051C21.9673 25.3357 22.7448 22.5273 23.9663 19.9034C25.0016 17.6791 25.633 15.1423 25.633 13.4843C25.633 12.2106 25.2604 10.5347 24.6183 8.91262Z" fill="#FDCBC6"/><path d="M48.6816 11.9947C49.7824 15.2673 49.7824 18.8102 48.6816 22.0827L47.9592 24.2302L45.0603 21.3312C42.6896 18.9605 42.6896 15.1169 45.0603 12.7461L46.3572 11.4492C47.0943 10.7122 48.3492 11.0067 48.6816 11.9947Z" fill="#95D528"/><path d="M62.0431 25.3557C58.7705 24.2548 55.2275 24.2548 51.9551 25.3557L49.8076 26.078L52.7066 28.977C55.0773 31.3477 58.9209 31.3477 61.2917 28.977L62.5886 27.6801C63.3254 26.9431 63.0311 25.6881 62.0431 25.3557Z" fill="#95D528"/><path d="M45.0599 18.0687C44.2936 17.3024 43.7766 16.382 43.5058 15.4075C42.9384 17.4481 43.4555 19.7268 45.0599 21.3312L47.9589 24.2302L48.6812 22.0827C48.7183 21.9727 48.7508 21.8616 48.7853 21.7509L45.0599 18.0687Z" fill="#89C627"/><path d="M62.0432 25.3558C61.944 25.3224 61.8439 25.2934 61.7443 25.262L61.2916 25.7147C58.9209 28.0854 55.0773 28.0854 52.7066 25.7147L52.2539 25.262C52.1543 25.2933 52.0542 25.3224 51.9551 25.3558L49.8076 26.0782L52.7066 28.9772C55.0773 31.3479 58.9209 31.3479 61.2916 28.9772L62.5885 27.6802C63.3255 26.9431 63.0312 25.6882 62.0432 25.3558Z" fill="#89C627"/><path d="M16.3508 8.78875C16.2241 9.1266 16.1543 9.49246 16.1543 9.87461C16.1543 10.7857 17.0343 13.0264 17.8546 14.9171C18.3809 16.1301 20.102 16.1301 20.6283 14.9171C21.4486 13.0264 22.3286 10.7857 22.3286 9.87461C22.3286 9.49234 22.2588 9.1266 22.132 8.78875C21.1939 8.76285 20.228 8.75488 19.2415 8.75488C18.2549 8.755 17.2889 8.76285 16.3508 8.78875Z" fill="#E43A4F"/><path d="M22.1324 8.78875C21.1943 8.76285 20.2283 8.75488 19.2418 8.75488C18.7211 8.75488 18.2065 8.75734 17.6982 8.7632C18.1528 8.76848 18.6023 8.77645 19.0453 8.78875C19.172 9.1266 19.2418 9.49246 19.2418 9.87461C19.2418 10.728 18.47 12.7472 17.6982 14.5532C17.7505 14.6757 17.8029 14.7971 17.8549 14.9172C18.3812 16.1302 20.1023 16.1302 20.6286 14.9172C21.4489 13.0265 22.3289 10.7859 22.3289 9.87473C22.3289 9.49246 22.2591 9.12672 22.1324 8.78875Z" fill="#C73044"/><path d="M20.0041 10.3175H13.5299C9.6291 10.3175 6.4668 7.15515 6.4668 3.25433V0.151559C6.4668 -0.9043 7.81984 -1.34071 8.43672 -0.483831L9.36871 0.810505C11.1471 3.28035 13.308 5.45078 15.7698 7.24011L20.0041 10.3175Z" fill="#95D528"/><path d="M18.4795 10.3175H24.9535C28.8543 10.3175 32.0166 7.15515 32.0166 3.25433V0.151559C32.0166 -0.9043 30.6636 -1.34071 30.0467 -0.483831L29.1147 0.810505C27.3363 3.28035 25.1755 5.45078 22.7136 7.24011L18.4795 10.3175Z" fill="#95D528"/><path d="M17.2603 8.32309H10.9871C9.92648 8.32309 8.92125 8.08777 8.01855 7.66895C9.31301 9.28297 11.3003 10.3175 13.5302 10.3175H20.0043L17.2603 8.32309Z" fill="#89C627"/><path d="M30.0467 -0.483919L29.4736 0.312136V1.25995C29.4736 5.16077 26.3112 8.32307 22.4104 8.32307H21.2236L18.4795 10.3175H24.9535C28.8543 10.3175 32.0166 7.15518 32.0166 3.25436V0.151589C32.0166 -0.90427 30.6636 -1.34068 30.0467 -0.483919Z" fill="#89C627"/><path d="M23.4418 6.8011C23.4418 10.7674 21.5614 10.3004 19.2419 10.3004C16.9224 10.3004 15.042 10.7674 15.042 6.8011C15.042 3.97595 17.1727 -0.138858 18.3988 -2.27284C18.7728 -2.9237 19.7107 -2.9237 20.0848 -2.27284C21.3111 -0.138975 23.4418 3.97595 23.4418 6.8011Z" fill="#B9EA6A"/><path d="M20.0848 -2.2727C19.7488 -2.85735 18.959 -2.91501 18.5304 -2.44919C19.6618 -0.245947 20.8984 2.65444 20.8984 4.80694C20.8984 8.77327 19.018 8.30628 16.6986 8.30628C16.1582 8.30628 15.6423 8.33112 15.168 8.31987C15.6248 10.6351 17.2751 10.3007 19.2418 10.3007C21.5613 10.3007 23.4416 10.7677 23.4416 6.80136C23.4416 3.97608 21.3109 -0.138721 20.0848 -2.2727Z" fill="#95D528"/><path d="M54.3395 25.6375C51.5348 28.4422 50.5354 26.7823 48.8953 25.1422C47.2551 23.502 45.5953 22.5026 48.3999 19.698C50.3976 17.7003 54.814 16.2973 57.1898 15.6554C57.9145 15.4595 58.5778 16.1228 58.382 16.8475C57.74 19.2236 56.3372 23.6398 54.3395 25.6375Z" fill="#B9EA6A"/><path d="M57.1897 15.6554C57.0337 15.6976 56.8686 15.7431 56.6964 15.7918C55.9461 17.9086 54.8996 20.2273 53.6017 21.5253C50.797 24.3299 49.7976 22.6701 48.1575 21.0299C47.9871 20.8595 47.8168 20.6963 47.651 20.537C45.9524 22.7224 47.4302 23.6772 48.8951 25.1422C50.5352 26.7823 51.5346 28.4422 54.3392 25.6375C56.3369 23.6398 57.7399 19.2235 58.3819 16.8476C58.5777 16.1228 57.9144 15.4595 57.1897 15.6554Z" fill="#95D528"/><path d="M42.5534 35.9726C43.184 35.2396 43.396 34.3879 43.0269 34.0705C42.6579 33.753 41.8475 34.09 41.2169 34.823C40.5864 35.5561 40.3744 36.4077 40.7434 36.7252C41.1125 37.0426 41.9229 36.7057 42.5534 35.9726Z" fill="#FBE77B"/><path d="M37.9548 43.3979C38.5854 42.6649 38.7974 41.8132 38.4283 41.4958C38.0592 41.1783 37.2489 41.5152 36.6183 42.2483C35.9877 42.9814 35.7758 43.833 36.1448 44.1505C36.5139 44.4679 37.3242 44.131 37.9548 43.3979Z" fill="#FBE77B"/><path d="M40.1345 25.5791C40.7651 24.846 40.977 23.9944 40.608 23.6769C40.2389 23.3595 39.4286 23.6964 38.798 24.4295C38.1674 25.1626 37.9554 26.0142 38.3245 26.3316C38.6936 26.6491 39.5039 26.3122 40.1345 25.5791Z" fill="#FBE77B"/><path d="M48.2185 35.2046C48.849 34.4715 49.061 33.6199 48.692 33.3024C48.3229 32.9849 47.5125 33.3219 46.882 34.055C46.2514 34.788 46.0394 35.6397 46.4085 35.9571C46.7776 36.2746 47.5879 35.9377 48.2185 35.2046Z" fill="#FBE77B"/></g></g><defs><clipPath id="clip0_1027:6396"><rect width="58" height="58" fill="white"/></clipPath><clipPath id="clip1_1027:6396"><rect width="60" height="60" fill="white" transform="translate(3 -5)"/></clipPath></defs></svg>