<svg xmlns="http://www.w3.org/2000/svg" width="58" height="58" viewBox="0 0 58 58" fill="none"><path d="M13.4304 16.5855C11.2419 18.0083 10.1101 20.4441 10.2443 22.8795C8.07282 21.7687 5.38731 21.8149 3.19883 23.2377C-0.0597885 25.3564 -0.980436 29.7208 1.14246 32.986C3.26535 36.2511 7.62795 37.1805 10.8866 35.0619C13.0751 33.639 14.2069 31.2033 14.0727 28.7679C16.2442 29.8787 18.9297 29.8325 21.1181 28.4097C24.3768 26.2911 25.2974 21.9267 23.1746 18.6615C21.0515 15.3964 16.6889 14.467 13.4304 16.5855Z" fill="#82B339"/><path d="M18.3045 21.1396C17.946 21.3726 17.6169 21.6337 17.3146 21.9158C14.9922 20.3751 11.8861 20.26 9.40481 21.8733C6.92691 23.4843 5.77158 26.3644 6.23243 29.1089C5.87054 29.2664 5.51636 29.454 5.17454 29.6763C1.84018 31.844 0.89818 36.3098 3.07032 39.6508C5.23126 42.9746 9.6598 43.9317 12.9884 41.8071L17.0654 48.0777C19.4367 51.725 24.3098 52.7631 27.9496 50.3966C31.5896 48.03 32.618 43.1549 30.2468 39.5076L26.1707 33.2383C29.505 31.0704 30.447 26.6046 28.2749 23.2635C26.1027 19.9228 21.6387 18.9717 18.3045 21.1396Z" fill="#AAD667"/><path d="M30.2469 39.5077L26.1708 33.2383C29.5052 31.0705 30.4472 26.6046 28.2751 23.2637C26.4322 20.4293 22.9402 19.3162 19.8877 20.3671C21.3641 20.8708 22.6901 21.8533 23.607 23.2637C25.7793 26.6047 24.8372 31.0705 21.5028 33.2383L25.5789 39.5077C27.9503 43.1549 26.9218 48.0301 23.2818 50.3966C22.6629 50.799 22.008 51.1006 21.3363 51.3099C23.4908 51.9782 25.9132 51.7207 27.9498 50.3966C31.5898 48.0301 32.6183 43.1549 30.2469 39.5077Z" fill="#99C94F"/><path d="M25.3693 44.7666L21.6301 39.0155C22.5418 38.2041 23.1695 37.1266 23.4266 35.9079C23.5263 35.4349 23.2238 34.9707 22.7508 34.8708C22.2791 34.7717 21.8136 35.0735 21.7137 35.5466C21.5538 36.3045 21.1875 36.9834 20.6593 37.5223L18.2592 33.8308C19.7422 32.6314 20.7617 30.9718 21.1617 29.0759C21.2613 28.6029 20.9588 28.1387 20.4859 28.0388C20.0144 27.9402 19.5486 28.2415 19.4487 28.7146C19.1458 30.1512 18.3921 31.4154 17.298 32.3524L14.6286 28.2465C14.3649 27.841 13.8226 27.7263 13.4177 27.9898C13.0124 28.2533 12.8974 28.7954 13.1609 29.2007L15.8305 33.3065C14.5301 33.9264 13.069 34.1023 11.6329 33.7964C11.1608 33.6954 10.6952 33.9973 10.5946 34.47C10.4939 34.9428 10.7954 35.4077 11.2682 35.5083C11.8537 35.633 12.4424 35.6948 13.0267 35.6948C14.3338 35.6948 15.6184 35.3858 16.792 34.7853L19.1917 38.4763C18.4848 38.7404 17.7159 38.7997 16.958 38.6384C16.4861 38.5379 16.0203 38.8393 15.9197 39.312C15.819 39.7848 16.1206 40.2497 16.5933 40.3503C16.9977 40.4364 17.4042 40.4791 17.8078 40.4791C18.6202 40.4791 19.4198 40.3061 20.1624 39.9694L23.9016 45.7205C24.0694 45.9785 24.3499 46.1188 24.6362 46.1188C24.7997 46.1188 24.9652 46.0729 25.1124 45.9772C25.5177 45.714 25.6327 45.1718 25.3693 44.7666Z" fill="#82B339"/><path d="M52.8994 46.1703V24.3535C52.8994 22.6846 52.5545 21.0337 51.8861 19.5044L49.3412 13.6808C48.6729 12.1516 48.3279 10.5006 48.3279 8.83171V4.84302H39.467V8.8316C39.467 10.5005 39.122 12.1515 38.4537 13.6807L35.9088 19.5043C35.2405 21.0335 34.8955 22.6845 34.8955 24.3534V46.1703C34.8955 49.0638 37.2412 51.4094 40.1346 51.4094H47.6603C50.5538 51.4094 52.8994 49.0639 52.8994 46.1703Z" fill="#FFF1EC"/><path d="M51.886 19.5043L49.3411 13.6807C48.6728 12.1515 48.3278 10.5005 48.3278 8.8316V4.84302H43.6598V8.8316C43.6598 10.5005 44.0048 12.1515 44.6731 13.6807L47.218 19.5043C47.8864 21.0335 48.2313 22.6845 48.2313 24.3534V46.1703C48.2313 49.0638 45.8857 51.4094 42.9922 51.4094H47.6602C50.5537 51.4094 52.8993 49.0638 52.8993 46.1703V24.3535C52.8993 22.6846 52.5544 21.0337 51.886 19.5043Z" fill="#FCE2C5"/><path d="M49.48 20.5558L48.9176 19.2688C48.724 18.8257 48.2081 18.6233 47.7652 18.8173C47.3222 19.0108 47.1201 19.5268 47.3137 19.9697L47.876 21.2567C48.3054 22.2394 48.5231 23.2814 48.5231 24.3536C48.5231 24.8371 48.9148 25.2288 49.3983 25.2288C49.8818 25.2288 50.2736 24.8371 50.2736 24.3536C50.2736 23.0387 50.0067 21.761 49.48 20.5558Z" fill="#F0D4B4"/><path d="M49.1552 4.84294H38.6402C37.9301 4.84294 37.3545 4.26726 37.3545 3.55726V1.28569C37.3545 0.575682 37.9301 0 38.6402 0H49.1552C49.8653 0 50.4409 0.575682 50.4409 1.28569V3.55714C50.4409 4.26726 49.8653 4.84294 49.1552 4.84294Z" fill="#97A6BF"/><path d="M49.1553 0H44.4873C45.1974 0 45.773 0.575682 45.773 1.28569V3.55714C45.773 4.26726 45.1974 4.84282 44.4873 4.84282H49.1553C49.8654 4.84282 50.441 4.26714 50.441 3.55714V1.28569C50.441 0.575682 49.8654 0 49.1553 0Z" fill="#8898B3"/><path d="M49.3411 13.6807C48.6728 12.1515 48.3278 10.5005 48.3278 8.8316V4.84302H39.4669V8.83171C39.4669 10.5006 39.1219 12.1516 38.4536 13.6808L37.4131 16.062H50.3816L49.3411 13.6807Z" fill="#73E3F0"/><path d="M49.3415 13.6807C48.6731 12.1515 48.3282 10.5005 48.3282 8.8316V4.84302H43.6602V8.83171C43.6602 10.5006 44.0051 12.1516 44.6735 13.6808L45.7141 16.062H50.3821L49.3415 13.6807Z" fill="#57D7E6"/><path d="M45.3815 38.5818L8.08356 44.2214V49.5971C8.03548 49.9966 8.03642 50.4015 8.08356 50.805C8.24111 52.1532 8.90712 53.4829 9.93093 54.5242C11.7362 56.3604 14.4683 57.3846 17.231 57.784C23.5172 58.6927 29.9423 56.6248 35.2513 53.6004C38.3824 51.8165 41.2745 49.7654 43.2423 47.618C44.2894 46.4754 45.5336 44.9115 45.3664 43.5714L45.3816 43.5684V38.5818H45.3815Z" fill="#FF8093"/><path d="M43.2422 42.2507C44.6557 40.7082 46.4284 38.398 44.6034 36.9071C42.3208 35.0426 38.4903 36.4658 36.2045 37.5302C34.7177 38.2226 33.2564 38.9869 31.6384 39.4115C29.0265 40.0968 26.2153 39.845 23.5168 39.4814C20.8184 39.1178 18.0904 38.6471 15.3766 38.9149C12.6629 39.1828 9.89615 40.3424 8.6792 42.4382C7.43109 44.5879 8.12557 47.3206 9.93081 49.1568C11.736 50.9929 14.4682 52.0172 17.2309 52.4166C23.517 53.3253 29.9422 51.2574 35.251 48.233C38.3823 46.4492 41.2744 44.3981 43.2422 42.2507Z" fill="#FC435F"/><path d="M44.6031 36.9074C43.1434 35.7151 41.0509 35.868 39.1338 36.411C39.4165 36.541 39.6855 36.7034 39.9351 36.9074C41.7602 38.3981 39.9874 40.7085 38.5739 42.251C36.6061 44.3984 33.714 46.4495 30.5829 48.2334C26.799 50.3891 22.4479 52.0577 17.9844 52.5101C24.0282 53.1575 30.154 51.1371 35.2509 48.2334C38.3821 46.4495 41.2741 44.3984 43.2419 42.251C44.6554 40.7083 46.4282 38.3981 44.6031 36.9074Z" fill="#EB2F4B"/><path d="M17.2038 47.2432C19.0201 47.2432 20.4925 46.4203 20.4925 45.4052C20.4925 44.3901 19.0201 43.5671 17.2038 43.5671C15.3875 43.5671 13.915 44.3901 13.915 45.4052C13.915 46.4203 15.3875 47.2432 17.2038 47.2432Z" fill="#FFF1EC"/><path d="M58.0001 49.2536C58.0001 52.9816 55.7288 55.1651 52.9268 55.1651C50.125 55.1651 47.8535 52.9816 47.8535 49.2536C47.8535 45.5256 50.1249 41.7151 52.9268 41.7151C55.7288 41.7151 58.0001 45.5257 58.0001 49.2536Z" fill="#FCD59F"/><path d="M52.9268 41.7151C52.0849 41.7151 51.2917 42.061 50.5928 42.6434C52.2198 43.9994 53.3321 46.6458 53.3321 49.2536C53.3321 51.8614 52.2198 53.7121 50.5928 54.5896C51.2917 54.9665 52.0849 55.165 52.9268 55.165C55.7286 55.165 58.0001 52.9814 58.0001 49.2535C58.0001 45.5255 55.7287 41.7151 52.9268 41.7151Z" fill="#F7C783"/><path d="M44.2351 47.854C47.9632 47.854 50.1469 50.1252 50.1469 52.927C50.1469 55.7287 47.9632 57.9999 44.2351 57.9999C40.507 57.9999 36.6963 55.7287 36.6963 52.927C36.6962 50.1253 40.507 47.854 44.2351 47.854Z" fill="#FFDEB0"/><path d="M46.2557 50.1015C45.82 49.8908 45.2971 50.0734 45.0866 50.5083C44.876 50.9435 45.0583 51.4669 45.4934 51.6774C46.057 51.95 46.331 52.3746 46.331 52.9753C46.331 53.4588 46.7228 53.8506 47.2063 53.8506C47.6898 53.8506 48.0815 53.4588 48.0815 52.9753C48.0817 51.7103 47.4161 50.6627 46.2557 50.1015Z" fill="#E8B266"/></svg>