<svg xmlns="http://www.w3.org/2000/svg" width="60" height="57" viewBox="0 0 60 57" fill="none"><path d="M50.0349 12.4409C47.9516 12.4409 46.0106 13.0451 44.374 14.0856C48.3289 16.3592 51.2872 20.1777 52.4213 24.7112C55.6784 23.9593 58.3588 21.702 59.6932 18.7118C58.0447 15.0173 54.3418 12.4409 50.0349 12.4409Z" fill="#09A76D"/><path d="M50.0358 12.4409C47.9525 12.4409 46.0115 13.0451 44.375 14.0856C45.2797 14.6057 46.1315 15.2074 46.9221 15.8792C47.8063 15.639 48.7361 15.5098 49.6966 15.5098C53.4863 15.5098 56.8076 17.505 58.674 20.5009C59.0689 19.9417 59.4122 19.3436 59.6943 18.7117C58.0455 15.0173 54.3427 12.4409 50.0358 12.4409Z" fill="#02905D"/><path d="M38.7325 9.98933L38.7227 10.0305L38.7416 10.0684C39.0907 10.7675 39.3903 11.4953 39.6408 12.2456C41.9377 12.7593 44.0603 13.739 45.9044 15.0801C47.1966 14.5644 48.4077 13.7836 49.4541 12.7372C52.4995 9.69181 53.2961 5.25173 51.8496 1.47361C48.0715 0.0271004 43.6314 0.823601 40.586 3.86902C39.8482 4.60683 39.2436 5.42699 38.7697 6.29935C39.0597 7.39452 39.0551 8.6551 38.7325 9.98933Z" fill="#09A76D"/><path d="M38.7325 9.98846L38.7227 10.0296L38.7416 10.0676C39.0907 10.7666 39.3903 11.4945 39.6408 12.2447C39.7669 12.2729 39.8923 12.3026 40.0173 12.3335C40.3181 10.1256 41.3154 7.99472 43.0129 6.29721C45.5602 3.74985 49.0833 2.77705 52.3787 3.37323C52.2621 2.72798 52.0866 2.09132 51.8496 1.47263C48.0715 0.0261241 43.6314 0.822624 40.586 3.86805C39.8482 4.60585 39.2436 5.42602 38.7697 6.29837C39.0597 7.39366 39.0551 8.65424 38.7325 9.98846Z" fill="#02905D"/><path d="M41.706 12.8467L48.8522 5.70032C49.192 5.36058 49.192 4.80975 48.8522 4.47013C48.5125 4.1304 47.9617 4.1304 47.622 4.47013L39.8096 12.2826C40.4567 12.4343 41.0895 12.6233 41.706 12.8467Z" fill="#026841"/><path d="M54.5842 17.8418H48.8838C49.352 18.3927 49.786 18.9737 50.1819 19.5816H54.5842C55.0646 19.5816 55.4541 19.1921 55.4541 18.7117C55.4541 18.2313 55.0646 17.8418 54.5842 17.8418Z" fill="#026841"/><path d="M18.9271 28.8358C18.9271 19.4617 26.5535 11.8353 35.9277 11.8353C37.2507 11.8353 38.5387 11.9873 39.7755 12.2745C39.519 11.5004 39.2095 10.7454 38.8451 10.0157C39.4195 7.63945 39.0316 5.38693 37.5592 3.91456C36.0868 2.44219 33.8343 2.05444 31.4581 2.6287C24.1001 -1.04643 14.2065 0.780988 7.26043 7.72702C0.314401 14.6731 -1.51301 24.5667 2.16223 31.9246C1.58785 34.3009 1.97572 36.5535 3.44809 38.0258C4.92046 39.4982 7.17298 39.8859 9.54925 39.3117C13.698 41.3839 18.6528 41.7065 23.4309 40.3487C20.6367 37.318 18.9271 33.2731 18.9271 28.8358Z" fill="#FAC600"/><path d="M8.40688 39.254C6.93451 37.7816 6.54675 35.5291 7.12102 33.1528C3.44577 25.795 5.27331 15.9013 12.2192 8.95523C17.37 3.80448 24.1414 1.46938 30.2979 2.10442C23.0856 -0.842871 13.8476 1.14009 7.26032 7.72725C0.314406 14.6733 -1.51301 24.5671 2.16223 31.925C1.58785 34.3013 1.97572 36.5538 3.44809 38.0261C4.73419 39.3122 6.61565 39.7705 8.65486 39.4832C8.57019 39.4096 8.48691 39.334 8.40688 39.254Z" fill="#E8B800"/><path d="M35.9281 45.9524C45.3813 45.9524 53.0447 38.289 53.0447 28.8358C53.0447 19.3826 45.3813 11.7192 35.9281 11.7192C26.4749 11.7192 18.8115 19.3826 18.8115 28.8358C18.8115 38.289 26.4749 45.9524 35.9281 45.9524Z" fill="#FEDF30"/><path d="M38.6909 45.0745C39.574 44.5293 40.2816 43.7292 40.7165 42.7783C39.217 43.3057 37.6056 43.5937 35.928 43.5937C34.2494 43.5937 32.637 43.3053 31.1367 42.7773C31.5756 43.7381 32.2948 44.544 33.1901 45.0899C34.2553 45.7395 34.639 47.1036 34.1136 48.2353L32.5829 51.5323C31.4479 53.9768 33.2329 56.7734 35.928 56.7734C38.6231 56.7734 40.408 53.9768 39.2732 51.5323L37.7421 48.2348C37.212 47.0929 37.6198 45.7359 38.6909 45.0745Z" fill="#FEF0AE"/><path d="M34.2484 51.331L35.7791 48.034C36.3045 46.9023 35.9208 45.5381 34.8556 44.8886C34.2104 44.4952 33.6589 43.9653 33.2357 43.3414C32.5159 43.2055 31.8149 43.0159 31.1367 42.7773C31.5756 43.7381 32.2948 44.544 33.1901 45.0899C34.2553 45.7395 34.639 47.1036 34.1136 48.2353L32.5829 51.5323C31.4479 53.9768 33.2329 56.7734 35.928 56.7734C36.3618 56.7734 36.7716 56.7001 37.15 56.5684C37.1188 56.5575 37.0884 56.5451 37.0576 56.5334C34.6695 56.1925 33.1905 53.6094 34.2484 51.331Z" fill="#FEE97D"/><path d="M35.9278 42.8395C43.5029 42.8395 49.6437 36.6987 49.6437 29.1236C49.6437 21.5485 43.5029 15.4077 35.9278 15.4077C28.3527 15.4077 22.2119 21.5485 22.2119 29.1236C22.2119 36.6987 28.3527 42.8395 35.9278 42.8395Z" fill="#FFF5C6"/><path d="M25.9374 29.1236C25.9374 22.1924 31.1055 16.4464 37.7906 15.5347C37.1813 15.4516 36.5596 15.4077 35.9278 15.4077C28.3648 15.4077 22.2119 21.5606 22.2119 29.1236C22.2119 36.6866 28.3648 42.8396 35.9278 42.8396C36.5596 42.8396 37.1812 42.7956 37.7906 42.7126C31.1055 41.8008 25.9374 36.0549 25.9374 29.1236Z" fill="#FEF0AE"/><path d="M35.0555 27.0196L27.404 19.3682C26.9671 19.7505 26.556 20.1615 26.1738 20.5983L33.8252 28.2497C34.0565 27.6951 34.5007 27.2508 35.0555 27.0196Z" fill="#FEE97D"/><path d="M35.9285 26.8447C36.2366 26.8447 36.5302 26.9069 36.7984 27.0181V16.1914C36.5108 16.1723 36.2209 16.1616 35.9285 16.1616C35.6361 16.1616 35.3462 16.1723 35.0586 16.1914V27.0181C35.3269 26.9069 35.6204 26.8447 35.9285 26.8447Z" fill="#FEE97D"/><path d="M33.6499 29.1236C33.6499 28.8155 33.7121 28.5219 33.8233 28.2537H22.9966C22.9775 28.5413 22.9668 28.8312 22.9668 29.1236C22.9668 29.416 22.9775 29.7058 22.9966 29.9935H33.8233C33.7121 29.7252 33.6499 29.4316 33.6499 29.1236Z" fill="#FEE97D"/><path d="M38.0329 28.2497L45.6843 20.5983C45.302 20.1614 44.8909 19.7503 44.4541 19.3682L36.8027 27.0195C37.3574 27.2507 37.8016 27.6949 38.0329 28.2497Z" fill="#FEE97D"/><path d="M33.8252 29.9976L26.1738 37.6489C26.5561 38.0859 26.9672 38.4969 27.404 38.8791L35.0554 31.2277C34.5007 30.9965 34.0565 30.5523 33.8252 29.9976Z" fill="#FEE97D"/><path d="M48.8609 28.2537H38.0342C38.1454 28.5219 38.2076 28.8155 38.2076 29.1236C38.2076 29.4316 38.1454 29.7252 38.0342 29.9935H48.8609C48.88 29.7058 48.8907 29.416 48.8907 29.1236C48.8907 28.8312 48.88 28.5413 48.8609 28.2537Z" fill="#FEE97D"/><path d="M36.8027 31.2276L44.4541 38.879C44.891 38.4967 45.3021 38.0856 45.6843 37.6488L38.0328 29.9973C37.8016 30.5521 37.3575 30.9963 36.8027 31.2276Z" fill="#FEE97D"/><path d="M35.9285 31.4024C35.6204 31.4024 35.3269 31.3402 35.0586 31.229V42.0557C35.3462 42.0748 35.6361 42.0855 35.9285 42.0855C36.2209 42.0855 36.5108 42.0748 36.7984 42.0557V31.229C36.5302 31.3404 36.2366 31.4024 35.9285 31.4024Z" fill="#FEE97D"/><path d="M35.928 31.5184C37.2507 31.5184 38.3229 30.4462 38.3229 29.1236C38.3229 27.801 37.2507 26.7288 35.928 26.7288C34.6054 26.7288 33.5332 27.801 33.5332 29.1236C33.5332 30.4462 34.6054 31.5184 35.928 31.5184Z" fill="white"/><path d="M35.9276 43.7096C27.8849 43.7096 21.3418 37.1664 21.3418 29.1238C21.3418 21.0812 27.8849 14.5378 35.9276 14.5378C43.9703 14.5378 50.5134 21.081 50.5134 29.1236C50.5134 37.1662 43.9703 43.7096 35.9276 43.7096ZM35.9276 16.2777C28.8443 16.2777 23.0816 22.0404 23.0816 29.1236C23.0816 36.2069 28.8443 41.9696 35.9276 41.9696C43.0108 41.9696 48.7735 36.2069 48.7735 29.1236C48.7735 22.0404 43.0108 16.2777 35.9276 16.2777Z" fill="white"/></svg>