<svg xmlns="http://www.w3.org/2000/svg" width="68" height="68" viewBox="0 0 68 68" fill="none"><path fill-rule="evenodd" clip-rule="evenodd" d="M46.7386 13.362C49.7286 18.162 49.9086 24.42 51.6386 29.72C53.2986 34.79 57.8686 38.39 59.1486 43.61C59.7191 45.9693 59.5293 48.4487 58.6061 50.6937C57.683 52.9387 56.0738 54.8344 54.0086 56.11C50.7386 58.26 46.7686 59.0799 42.8586 59.4599C34.0886 60.3099 24.7586 58.98 17.5986 53.82C8.26857 47.08 5.75859 34.68 9.98859 24.34C11.4971 20.7689 13.7049 17.5357 16.4819 14.8308C19.2589 12.1259 22.5491 10.004 26.1586 8.59C32.4586 6.116 40.4286 6.19996 45.0986 11.209C45.7143 11.8713 46.2636 12.5924 46.7386 13.362Z" fill="#CBE1F4"/><path d="M63.39 31.6948H49.5596V47.8305H66.8476C67.4841 47.8305 68.0002 47.3144 68.0002 46.6779V36.305C68.0002 33.7589 65.9362 31.6948 63.39 31.6948Z" fill="#FFDC64"/><path d="M49.5596 34H63.3901C64.6633 34 65.6952 35.032 65.6952 36.3051V47.8306H49.5596V34Z" fill="#FFC850"/><path d="M65.6028 47.8306C65.0422 43.9223 61.6898 40.9153 57.6266 40.9153C53.5633 40.9153 50.211 43.9223 49.6504 47.8306H65.6028Z" fill="#E1A546"/><path d="M58.7799 17.8643H49.5596V22.4744H61.6613C61.9795 22.4744 62.2376 22.2164 62.2376 21.8982V21.3219C62.2376 19.4123 60.6897 17.8643 58.7799 17.8643Z" fill="#FFDC64"/><path d="M48.4064 13.2544H6.91488C6.27844 13.2544 5.76233 13.7705 5.76233 14.4069V37.4577H3.45723C2.82013 37.4577 2.30469 37.9739 2.30469 38.6103C2.30469 39.2467 2.82013 39.7628 3.45723 39.7628H10.3725C11.0096 39.7628 11.5251 40.2789 11.5251 40.9154C11.5251 41.5518 11.0096 42.0679 10.3725 42.0679H5.76233V46.6781C5.76233 47.3146 6.27844 47.8307 6.91488 47.8307H49.559V14.4069C49.559 13.7704 49.0429 13.2544 48.4064 13.2544Z" fill="#B4E66E"/><path d="M23.7072 42.0678C22.5003 41.3471 21.1015 40.9153 19.5932 40.9153C18.0848 40.9153 16.686 41.3471 15.4792 42.0678H1.15255C0.515445 42.0678 0 42.5839 0 43.2204C0 43.8568 0.515445 44.3729 1.15255 44.3729H5.76273V46.678C5.76273 47.3145 6.27884 47.8306 6.91528 47.8306H49.5594V42.0678H23.7072Z" fill="#A0D755"/><path d="M57.627 54.7459C60.8097 54.7459 63.3897 52.1659 63.3897 48.9832C63.3897 45.8005 60.8097 43.2205 57.627 43.2205C54.4443 43.2205 51.8643 45.8005 51.8643 48.9832C51.8643 52.1659 54.4443 54.7459 57.627 54.7459Z" fill="#5B5D6E"/><path d="M19.5928 54.7459C22.7755 54.7459 25.3555 52.1659 25.3555 48.9832C25.3555 45.8005 22.7755 43.2205 19.5928 43.2205C16.4101 43.2205 13.8301 45.8005 13.8301 48.9832C13.8301 52.1659 16.4101 54.7459 19.5928 54.7459Z" fill="#5B5D6E"/><path d="M63.39 31.695L61.0849 22.4746H49.5596V31.695H63.39Z" fill="#B4E6FF"/><path d="M19.5934 52.4407C21.503 52.4407 23.051 50.8926 23.051 48.983C23.051 47.0734 21.503 45.5254 19.5934 45.5254C17.6838 45.5254 16.1357 47.0734 16.1357 48.983C16.1357 50.8926 17.6838 52.4407 19.5934 52.4407Z" fill="#C7CFE2"/><path d="M19.593 50.1357C20.2295 50.1357 20.7455 49.6197 20.7455 48.9831C20.7455 48.3466 20.2295 47.8306 19.593 47.8306C18.9564 47.8306 18.4404 48.3466 18.4404 48.9831C18.4404 49.6197 18.9564 50.1357 19.593 50.1357Z" fill="#7F8499"/><path d="M57.6276 52.4407C59.5372 52.4407 61.0852 50.8926 61.0852 48.983C61.0852 47.0734 59.5372 45.5254 57.6276 45.5254C55.718 45.5254 54.1699 47.0734 54.1699 48.983C54.1699 50.8926 55.718 52.4407 57.6276 52.4407Z" fill="#C7CFE2"/><path d="M57.6272 50.1357C58.2637 50.1357 58.7797 49.6197 58.7797 48.9831C58.7797 48.3466 58.2637 47.8306 57.6272 47.8306C56.9906 47.8306 56.4746 48.3466 56.4746 48.9831C56.4746 49.6197 56.9906 50.1357 57.6272 50.1357Z" fill="#7F8499"/><path d="M54.1698 24.7797H61.6613L61.085 22.4746H49.5596V31.695H53.0172V25.9323C53.0172 25.2958 53.5333 24.7797 54.1698 24.7797Z" fill="#9BD6FF"/><path d="M49.5596 20.1694H58.7799C59.4164 20.1694 59.9325 20.6855 59.9325 21.322V22.4745H49.5596V20.1694Z" fill="#FFC850"/><path d="M67.9996 36.3052H64.542V40.9154H67.9996V36.3052Z" fill="#F1F4FB"/><path d="M62.2373 36.3052V38.6103C62.2373 39.8833 63.2694 40.9154 64.5424 40.9154H65.6949V36.3052H62.2373Z" fill="#FF8C66"/><path d="M26.5082 35.4406C26.139 35.4406 25.771 35.2998 25.4897 35.0185L18.5744 28.1032C18.0117 27.5405 18.0117 26.6289 18.5744 26.066C19.1371 25.5032 20.0487 25.5033 20.6116 26.066L26.5083 31.9628L37.0151 21.456C37.5779 20.8933 38.4895 20.8933 39.0523 21.456C39.6152 22.0187 39.6151 22.9303 39.0523 23.4932L27.5269 35.0187C27.2455 35.3 26.8774 35.4406 26.5082 35.4406Z" fill="white"/></svg>